<?xml version="1.0" encoding="UTF-8"?>
<svg version="1.1" xmlns="http://www.w3.org/2000/svg" width="1200" height="650">
<path d="M0 0 C39.6 0 79.2 0 120 0 C120.33 12.21 120.66 24.42 121 37 C122.04498716 43.96658109 123.02156503 50.3388056 125 57 C125.21285645 57.72977051 125.42571289 58.45954102 125.64501953 59.21142578 C134.18644489 87.58138187 152.28616503 110.8854234 177 127 C177.96421875 127.63679688 178.9284375 128.27359375 179.921875 128.9296875 C199.38780427 141.02867668 221.60798123 145.73496 244.25830078 146.28979492 C313.25372532 148.03594454 373.14191316 175.3679893 421.41796875 224.265625 C425.55130554 228.64283492 429.32462918 233.23447682 433 238 C433.42249023 238.5460791 433.84498047 239.0921582 434.28027344 239.65478516 C441.95813783 249.64610395 448.66373841 260.11533279 455 271 C455.3619043 271.61246582 455.72380859 272.22493164 456.09667969 272.85595703 C468.62952779 294.24575089 476.49182166 318.45179276 481.25 342.6875 C481.47695557 343.84233887 481.47695557 343.84233887 481.70849609 345.02050781 C484.87234356 362.34480702 485.28154588 379.4368573 485.22705078 397.00244141 C485.22648552 399.57649226 485.22680547 402.15054344 485.22793579 404.72459412 C485.22897612 410.2295084 485.22278974 415.73437467 485.21146011 421.23927689 C485.19509092 429.19808399 485.18998554 437.15686828 485.18748413 445.1156904 C485.18312477 458.03352024 485.16986384 470.95132459 485.15087891 483.86914062 C485.13247427 496.40527218 485.11836328 508.94139673 485.10986328 521.47753906 C485.10932729 522.2602834 485.10879129 523.04302773 485.10823905 523.8494916 C485.10407934 529.97257125 485.1001658 536.09565106 485.09632993 542.21873093 C485.07751895 572.14584403 485.03726912 602.07289319 485 632 C445.4 632 405.8 632 365 632 C364.97421875 613.75203125 364.9484375 595.5040625 364.921875 576.703125 C364.89670218 565.12759422 364.87055207 553.55207796 364.83984375 541.9765625 C364.82375416 535.89225336 364.80791104 529.80794366 364.79248047 523.72363281 C364.79053653 522.96118043 364.78859259 522.19872805 364.78658974 521.41317105 C364.75566292 509.14240884 364.73862083 496.87166528 364.72680578 484.60087147 C364.71434595 471.98526366 364.68673648 459.3697529 364.64538693 446.75420642 C364.62038893 438.98472964 364.60687262 431.21541404 364.60857043 423.44589648 C364.60860401 417.46413308 364.58744683 411.48262552 364.55883217 405.50092316 C364.55038554 403.06470125 364.54854714 400.62844497 364.55419731 398.19221497 C364.59003181 380.35035663 363.3622861 362.90076112 356.75 346.125 C356.30503174 344.96278931 356.30503174 344.96278931 355.85107422 343.77709961 C344.06476668 314.00423572 320.15695735 289.99079101 290.96630859 277.10205078 C259.79522316 264.19521517 225.59670457 264.60411649 194.41015625 277.0859375 C165.70020172 289.19591183 141.81370992 313.01903817 129.921875 341.8515625 C124.08588435 356.8313505 120.85801852 371.55893995 120.84178162 387.64282227 C120.83684364 388.69096352 120.83190566 389.73910477 120.82681805 390.81900787 C120.81150523 394.31813913 120.80309931 397.81725213 120.79467773 401.31640625 C120.78509432 403.82987121 120.77508397 406.34333457 120.76467896 408.85679626 C120.74326389 414.26145897 120.72481001 419.66611879 120.70907402 425.07080078 C120.68631754 432.88496711 120.65818289 440.69910688 120.62875474 448.51325059 C120.58114946 461.19257848 120.53786625 473.87191727 120.49731445 486.55126953 C120.45792351 498.86475472 120.4164776 511.17823019 120.37231445 523.49169922 C120.36956495 524.25901851 120.36681544 525.0263378 120.36398262 525.81690919 C120.34246223 531.81825607 120.32082302 537.81960252 120.29914629 543.82094884 C120.19300984 573.21394627 120.09723201 602.60696916 120 632 C80.4 632 40.8 632 0 632 C0 423.44 0 214.88 0 0 Z " fill="#1C1E1E" transform="translate(48,17)"/>
<path d="M0 0 C43.23 0 86.46 0 131 0 C131 213.84 131 427.68 131 648 C87.77 648 44.54 648 0 648 C0 434.16 0 220.32 0 0 Z " fill="#1B1E1E" transform="translate(1023,1)"/>
<path d="M0 0 C0.57089355 0.48694336 1.14178711 0.97388672 1.72998047 1.47558594 C3.37996587 2.90200001 5.00539672 4.35172927 6.625 5.8125 C7.21313477 6.32635254 7.80126953 6.84020508 8.40722656 7.36962891 C10.1015625 8.92578125 10.1015625 8.92578125 12.625 11.8125 C12.37560142 15.29150287 10.80052568 17.00877062 8.39170837 19.40655518 C7.70037308 20.10201447 7.00903778 20.79747375 6.29675293 21.51400757 C5.152005 22.64257675 5.152005 22.64257675 3.98413086 23.79394531 C3.18419205 24.5943222 2.38425323 25.3946991 1.56007385 26.21932983 C-1.08962165 28.8669329 -3.74979023 31.50374764 -6.41015625 34.140625 C-8.24783971 35.97271416 -10.08486257 37.80546614 -11.92124939 39.63885498 C-16.26479693 43.97211275 -20.61496037 48.29862426 -24.96839184 52.62194896 C-29.92465539 57.54467841 -34.87240132 62.47593091 -39.81944859 67.40791941 C-49.99517915 77.55229376 -60.18156726 87.68591516 -70.375 97.8125 C-73.51605422 96.31253781 -75.67384694 94.73195304 -78.1875 92.3125 C-103.39811105 69.57756271 -135.80344117 61.27649492 -169.12207031 62.60107422 C-201.18511962 64.68502804 -230.21113074 81.32924693 -251.57470703 104.71484375 C-262.9310709 117.94699432 -270.56011749 133.31998333 -275.6875 149.875 C-275.93032715 150.65343262 -276.1731543 151.43186523 -276.42333984 152.23388672 C-280.8834184 167.51431157 -280.6803236 182.85900918 -280.69384766 198.62646484 C-280.70315863 201.12111227 -280.71332902 203.61575661 -280.72428894 206.11039734 C-280.74585874 211.45602927 -280.76152244 216.80162713 -280.77165604 222.14728928 C-280.78631748 229.87595969 -280.81187455 237.60456479 -280.83998732 245.3331966 C-280.88532065 257.87608503 -280.9219907 270.41898293 -280.953125 282.96191406 C-280.98336594 295.1373867 -281.01776377 307.31283612 -281.05761719 319.48828125 C-281.0600987 320.24795755 -281.0625802 321.00763385 -281.06513691 321.79033065 C-281.08457964 327.73257476 -281.10426142 333.67481807 -281.12401867 339.61706114 C-281.22059564 368.68217911 -281.29634476 397.74731733 -281.375 426.8125 C-320.975 426.8125 -360.575 426.8125 -401.375 426.8125 C-401.49599405 363.40713801 -401.49599405 363.40713801 -401.52148438 336.77539062 C-401.52735649 330.68139624 -401.53341751 324.58740208 -401.53979492 318.4934082 C-401.54058617 317.72980313 -401.54137741 316.96619805 -401.54219264 316.17945343 C-401.55518057 303.9101581 -401.57879827 291.64090567 -401.60645839 279.37163564 C-401.6346812 266.74587939 -401.65121157 254.12014533 -401.65726548 241.49435884 C-401.66134728 233.72642509 -401.67415714 225.95861264 -401.6987494 218.1907163 C-401.71673664 212.19764677 -401.71832377 206.20467785 -401.71432304 200.21157837 C-401.71513735 197.77988764 -401.72095397 195.3481916 -401.73261642 192.9165287 C-401.84437572 168.37639731 -399.60508211 144.58354351 -393.375 120.8125 C-393.19243652 120.08482422 -393.00987305 119.35714844 -392.82177734 118.60742188 C-379.22183049 64.81040218 -343.59490741 18.22592017 -299.375 -14.1875 C-298.78299805 -14.62562012 -298.19099609 -15.06374023 -297.58105469 -15.51513672 C-279.19330029 -28.96711839 -257.91190935 -38.96418026 -236.375 -46.1875 C-235.58706055 -46.45997559 -234.79912109 -46.73245117 -233.98730469 -47.01318359 C-154.29174989 -74.28436541 -63.42455017 -54.13348362 0 0 Z " fill="#1C1E1E" transform="translate(972.375,222.1875)"/>
<path d="M0 0 C39.6 0 79.2 0 120 0 C120.33 12.21 120.66 24.42 121 37 C122.04498716 43.96658109 123.02156503 50.3388056 125 57 C125.21285645 57.72977051 125.42571289 58.45954102 125.64501953 59.21142578 C134.18644489 87.58138187 152.28616503 110.8854234 177 127 C177.96421875 127.63679688 178.9284375 128.27359375 179.921875 128.9296875 C199.38780427 141.02867668 221.60798123 145.73496 244.25830078 146.28979492 C302.3906067 147.76101862 356.64710832 167.06534534 401 205 C400.4402533 208.45966158 399.49184574 209.79071948 396.7109375 211.8828125 C396.02531738 212.40480225 395.33969727 212.92679199 394.63330078 213.46459961 C393.88806152 214.01253174 393.14282227 214.56046387 392.375 215.125 C391.6001123 215.70193604 390.82522461 216.27887207 390.02685547 216.87329102 C387.69478913 218.59669138 385.34938977 220.30032181 383 222 C382.39349609 222.44682129 381.78699219 222.89364258 381.16210938 223.35400391 C354.03689501 243.20846087 321.54323558 255.49077641 288.8125 262.25 C288.09054443 262.40114258 287.36858887 262.55228516 286.62475586 262.70800781 C271.6145179 265.61968178 256.56258988 266.38238925 241.3125 266.3125 C240.43815308 266.31001251 239.56380615 266.30752502 238.66296387 266.30496216 C200.55287798 266.13785835 163.62552829 257.21798528 130 239 C128.91428711 238.42596436 128.91428711 238.42596436 127.80664062 237.84033203 C114.21136783 230.6515273 102.00046728 222.43041609 90.0859375 212.69140625 C88.09273334 211.07519389 86.0627328 209.52604893 84 208 C78.63055893 210.34154944 75.00868064 214.65192861 70.9375 218.75 C70.08422119 219.60746826 69.23094238 220.46493652 68.35180664 221.34838867 C61.6356001 228.18451608 55.61920876 235.25171781 50 243 C49.14508186 244.14884745 48.28960571 245.29727984 47.43359375 246.4453125 C19.61786095 284.15108363 3.9452311 329.34133888 1 376 C0.67 376 0.34 376 0 376 C0 251.92 0 127.84 0 0 Z " fill="#1D8080" transform="translate(48,17)"/>
<path d="M0 0 C39.6 0 79.2 0 120 0 C120.33 12.21 120.66 24.42 121 37 C122.04498716 43.96658109 123.02156503 50.3388056 125 57 C125.21285645 57.72977051 125.42571289 58.45954102 125.64501953 59.21142578 C134.18644489 87.58138187 152.28616503 110.8854234 177 127 C177.96421875 127.63679688 178.9284375 128.27359375 179.921875 128.9296875 C196.35412057 139.1430998 215.74989031 144.75805744 235 146 C235 146.33 235 146.66 235 147 C233.97737061 147.09704224 233.97737061 147.09704224 232.93408203 147.19604492 C178.42125283 152.49451364 126.46540319 168.74414183 85 206 C81.02370704 204.65845832 78.62350414 202.99913391 75.671875 200.03515625 C74.87668457 199.24101318 74.08149414 198.44687012 73.26220703 197.62866211 C72.43317871 196.78182861 71.60415039 195.93499512 70.75 195.0625 C69.89390137 194.19439697 69.03780273 193.32629395 68.15576172 192.43188477 C62.38463238 186.53112291 56.92945022 180.62926065 52 174 C51.52965332 173.38431152 51.05930664 172.76862305 50.57470703 172.13427734 C41.59622843 160.35926919 33.95138557 148.06840383 27 135 C26.38946777 133.86304688 26.38946777 133.86304688 25.76660156 132.703125 C11.99799355 106.66626023 4.28171735 77.20785286 1.1875 48.0625 C1.06318604 46.94109619 0.93887207 45.81969238 0.81079102 44.66430664 C-0.57128236 29.74138725 0 15.10101569 0 0 Z " fill="#70C7D4" transform="translate(48,17)"/>
</svg>
